<?xml version="1.0" standalone="no"?>
<!DOCTYPE svg PUBLIC "-//W3C//DTD SVG 20010904//EN"
 "http://www.w3.org/TR/2001/REC-SVG-20010904/DTD/svg10.dtd">
<svg version="1.0" xmlns="http://www.w3.org/2000/svg"
 width="165.000000pt" height="165.000000pt" viewBox="0 0 165.000000 165.000000"
 preserveAspectRatio="xMidYMid meet">
<metadata>
Created by potrace 1.11, written by Peter Selinger 2001-2013
</metadata>
<g transform="translate(0.000000,165.000000) scale(0.100000,-0.100000)"
fill="#000000" stroke="none">
<path d="M424 1419 c-3 -5 1 -11 8 -13 7 -3 29 -9 49 -16 22 -6 40 -20 47 -35
16 -35 16 -875 0 -910 -8 -18 -24 -29 -55 -36 -24 -6 -43 -17 -43 -24 0 -11
82 -13 414 -13 l413 0 -1 184 c-1 164 -3 184 -18 184 -11 0 -20 -15 -28 -52
-19 -80 -67 -172 -115 -216 -55 -52 -108 -70 -203 -67 -120 4 -112 -33 -112
486 0 307 4 447 12 464 8 17 24 28 52 36 62 15 68 18 61 28 -7 13 -473 12
-481 0z"/>
</g>
</svg>
